<svg width="715" height="600" viewBox="0 0 715 600" fill="none" xmlns="http://www.w3.org/2000/svg">
<g id="SVG">
<path id="Union" d="M571.309 321.076C557.885 309.702 532.39 285.259 488 237.732L505.328 226L596.048 316.923L594.873 318.144L597.985 321.016C598.608 323.636 579.929 345.301 500.227 411L488.358 394.141L571.309 321.076Z" fill="#FF0000"/>
<path id="Union_2" d="M409.876 321.052C396.608 309.95 371.023 285.622 326 237.67L343.328 226L434.048 316.445L432.375 318.174L435.985 321.489C436.608 324.095 417.929 345.646 338.227 411L326.358 394.23L409.876 321.052Z" fill="#0094FF"/>
<path id="Union_3" d="M231.502 324.174C217.45 311.569 192.471 286.658 151 241.05L168.328 229L247.085 310.076L247.992 309.256L260.985 321.574C261.608 324.265 242.929 346.518 163.227 414L151.358 396.683L231.502 324.174Z" fill="#24FF00"/>
</g>
</svg>
